<svg width="18" height="16" viewBox="0 0 18 16" fill="none" xmlns="http://www.w3.org/2000/svg">
<path fill-rule="evenodd" clip-rule="evenodd" d="M2.91074 1.16009C3.23618 0.834656 3.76382 0.834656 4.08926 1.16009L16.5893 13.6601C16.9147 13.9855 16.9147 14.5132 16.5893 14.8386C16.2638 15.164 15.7362 15.164 15.4107 14.8386L13.8151 13.243C12.5566 14.0138 10.9621 14.5422 8.98637 14.5099C5.65178 14.4553 3.44422 12.91 2.08886 11.3861C1.41577 10.6293 0.951505 9.87784 0.654596 9.31442C0.505748 9.03196 0.3978 8.79456 0.32585 8.62432C0.289846 8.53912 0.262767 8.47053 0.244013 8.42128C0.234633 8.39665 0.227327 8.37683 0.222021 8.36216L0.215549 8.34407L0.213419 8.338L0.212627 8.33571L0.212299 8.33477C0.212153 8.33434 0.212016 8.33394 1 8.06279C0.204749 7.81375 0.204834 7.81348 0.204923 7.8132L0.205572 7.81114L0.206732 7.80749L0.210074 7.79711L0.22092 7.7644C0.230028 7.7374 0.242938 7.70014 0.259871 7.65359C0.29372 7.56055 0.343747 7.43012 0.411737 7.27018C0.547509 6.95078 0.756145 6.51078 1.05248 6.0142C1.59003 5.1134 2.43028 4.00293 3.66932 3.09718L2.91074 2.3386C2.58531 2.01317 2.58531 1.48553 2.91074 1.16009ZM4.86537 4.29323C3.74304 5.0523 2.97586 6.04349 2.48368 6.86827C2.23232 7.28948 2.05692 7.66026 1.94557 7.92219C1.92603 7.96817 1.90849 8.01071 1.89291 8.04948C1.94828 8.17574 2.02622 8.34227 2.12906 8.53741C2.37862 9.01099 2.77013 9.64425 3.33421 10.2785C4.45321 11.5366 6.24565 12.7981 9.01363 12.8434C10.4718 12.8673 11.6479 12.5277 12.5944 12.0223L10.7478 10.1757C10.265 10.5472 9.6567 10.7674 9 10.7674C7.45679 10.7674 6.16667 9.5443 6.16667 7.98794C6.16667 7.32007 6.40758 6.70818 6.80381 6.23167L4.86537 4.29323ZM7.9948 7.42266C7.89122 7.5895 7.83333 7.78253 7.83333 7.98794C7.83333 8.58122 8.33407 9.10074 9 9.10074C9.19822 9.10074 9.38301 9.05406 9.54458 8.97244L7.9948 7.42266ZM1.78725 7.78951C1.78713 7.78915 1.78715 7.78921 1.78725 7.78951V7.78951ZM1 8.06279L0.204923 7.8132L0.122925 8.07504L0.212016 8.33394L1 8.06279ZM9 3.08268C8.68248 3.08268 8.3792 3.09945 8.08958 3.13076C7.63201 3.18024 7.22097 2.84941 7.17149 2.39184C7.12202 1.93427 7.45285 1.52323 7.91042 1.47376C8.26058 1.43589 8.62368 1.41602 9 1.41602C12.391 1.41602 14.608 3.02488 15.9539 4.61835C16.6219 5.40922 17.0778 6.19721 17.3672 6.78757C17.5124 7.08363 17.617 7.33255 17.6863 7.51083C17.721 7.60004 17.747 7.6718 17.7649 7.7232C17.7739 7.74891 17.7809 7.76955 17.7859 7.78475L17.792 7.80345L17.794 7.80967L17.7947 7.81198L17.795 7.81293C17.7951 7.81335 17.7952 7.81375 17 8.06279C17.7909 8.32543 17.7908 8.32557 17.7908 8.32572L17.7899 8.32834L17.7885 8.3325L17.7844 8.34446C17.7811 8.35404 17.7766 8.3668 17.7709 8.38259C17.7596 8.41416 17.7435 8.45787 17.7222 8.51241C17.6798 8.62143 17.617 8.77412 17.5315 8.96002C17.3609 9.33114 17.0983 9.83862 16.7253 10.397C16.4696 10.7797 15.9522 10.8827 15.5694 10.627C15.1867 10.3714 15.0837 9.85388 15.3394 9.47118C15.6549 8.99882 15.8761 8.57066 16.0172 8.26381C16.0532 8.18564 16.0838 8.1156 16.1093 8.05502C16.0549 7.91926 15.9763 7.73662 15.8708 7.52131C15.6258 7.02165 15.2402 6.35628 14.6807 5.69379C13.5715 4.38054 11.7885 3.08268 9 3.08268ZM17 8.06279L17.7908 8.32572L17.8756 8.0703L17.7952 7.81375L17 8.06279ZM16.2053 8.3137C16.2054 8.31401 16.2055 8.31407 16.2053 8.3137V8.3137Z" fill="#171717"/>
</svg>
