<svg width="18" height="14" viewBox="0 0 18 14" fill="none" xmlns="http://www.w3.org/2000/svg">
<path fill-rule="evenodd" clip-rule="evenodd" d="M1.89291 7.08659C1.94726 6.95141 2.0251 6.77081 2.12924 6.55842C2.37424 6.05875 2.75976 5.39339 3.31932 4.7309C4.42855 3.41765 6.21151 2.11979 9 2.11979C11.7885 2.11979 13.5715 3.41765 14.6807 4.7309C15.2402 5.39339 15.6258 6.05875 15.8708 6.55842C15.9763 6.77373 16.0549 6.95637 16.1093 7.09213C16.0534 7.22484 15.9732 7.40255 15.8663 7.61156C15.616 8.10073 15.2243 8.75117 14.6609 9.39593C13.5442 10.674 11.7637 11.9255 9.01363 11.8805C6.24565 11.8352 4.45321 10.5737 3.33421 9.31557C2.77013 8.68136 2.37862 8.0481 2.12906 7.57452C2.02622 7.37937 1.94828 7.21285 1.89291 7.08659ZM17 7.0999C17.7952 6.85086 17.7951 6.85046 17.795 6.85004L17.7947 6.84909L17.794 6.84678L17.792 6.84056L17.7859 6.82186C17.7809 6.80665 17.7739 6.78602 17.7649 6.76031C17.747 6.70891 17.721 6.63715 17.6863 6.54793C17.617 6.36966 17.5124 6.12074 17.3672 5.82468C17.0778 5.23432 16.6219 4.44633 15.9539 3.65546C14.608 2.06199 12.391 0.453125 9 0.453125C5.609 0.453125 3.39197 2.06199 2.04606 3.65546C1.37806 4.44633 0.922239 5.23432 0.632778 5.82468C0.487614 6.12074 0.383039 6.36966 0.313675 6.54793C0.278963 6.63715 0.252977 6.70891 0.23506 6.76031C0.226099 6.78602 0.219148 6.80665 0.214125 6.82186L0.208024 6.84056L0.206037 6.84678L0.205306 6.84909L0.205006 6.85004C0.204874 6.85046 0.204749 6.85086 1 7.0999L0.204749 6.85086L0.122925 7.11215L0.212016 7.37105L1 7.0999C0.212016 7.37105 0.212153 7.37145 0.212299 7.37187L0.212627 7.37282L0.213419 7.3751L0.215549 7.38118L0.222021 7.39927C0.227327 7.41394 0.234633 7.43375 0.244013 7.45839C0.262767 7.50764 0.289846 7.57623 0.32585 7.66143C0.3978 7.83167 0.505748 8.06907 0.654596 8.35153C0.951505 8.91495 1.41577 9.66644 2.08886 10.4232C3.44422 11.9471 5.65178 13.4924 8.98637 13.547C12.3389 13.6018 14.5583 12.0464 15.916 10.4926C16.5898 9.72138 17.0538 8.94965 17.3501 8.37064C17.4986 8.08026 17.6063 7.83581 17.6779 7.66061C17.7137 7.57293 17.7407 7.50236 17.7593 7.45177C17.7686 7.42648 17.7758 7.40615 17.7811 7.39117L17.7874 7.37273L17.7895 7.36658L17.7903 7.3643L17.7906 7.36335C17.7907 7.36293 17.7909 7.36254 17 7.0999ZM17 7.0999L17.7909 7.36254L17.8756 7.10741L17.7952 6.85086L17 7.0999ZM9 5.91225C8.33407 5.91225 7.83333 6.43177 7.83333 7.02505C7.83333 7.61833 8.33407 8.13785 9 8.13785C9.66593 8.13785 10.1667 7.61833 10.1667 7.02505C10.1667 6.43177 9.66593 5.91225 9 5.91225ZM16.2053 7.35081C16.2055 7.35118 16.2055 7.35121 16.2054 7.3509L16.2053 7.35081ZM6.16667 7.02505C6.16667 5.46869 7.45679 4.24558 9 4.24558C10.5432 4.24558 11.8333 5.46869 11.8333 7.02505C11.8333 8.58141 10.5432 9.80451 9 9.80451C7.45679 9.80451 6.16667 8.58141 6.16667 7.02505Z" fill="#171717"/>
</svg>
