<svg width="11" height="10" viewBox="0 0 11 10" fill="none" xmlns="http://www.w3.org/2000/svg">
<path fill-rule="evenodd" clip-rule="evenodd" d="M5.50004 0.333252C5.86823 0.333252 6.16671 0.631729 6.16671 0.999919L6.16671 4.33325H9.50004C9.86823 4.33325 10.1667 4.63173 10.1667 4.99992C10.1667 5.36811 9.86823 5.66658 9.50004 5.66658H6.16671V8.99992C6.16671 9.36811 5.86823 9.66659 5.50004 9.66659C5.13185 9.66659 4.83337 9.36811 4.83337 8.99992L4.83337 5.66659H1.50004C1.13185 5.66659 0.833374 5.36811 0.833374 4.99992C0.833374 4.63173 1.13185 4.33325 1.50004 4.33325H4.83337L4.83337 0.999919C4.83337 0.631729 5.13185 0.333252 5.50004 0.333252Z" fill="white"/>
</svg>
