<svg width="16" height="16" viewBox="0 0 16 16" fill="none" xmlns="http://www.w3.org/2000/svg">
<path fill-rule="evenodd" clip-rule="evenodd" d="M0.904847 3.17168C0.904855 1.91984 1.91967 0.905029 3.17151 0.905029H10.3717C11.6235 0.905029 12.6384 1.91985 12.6384 3.1717V6.3717C12.6384 6.73988 12.3399 7.03836 11.9717 7.03836C11.6035 7.03836 11.305 6.73988 11.305 6.3717V3.1717C11.305 2.65623 10.8872 2.23836 10.3717 2.23836H3.17151C2.65605 2.23836 2.23818 2.65623 2.23818 3.17169L2.23812 12.7717C2.23812 13.2871 2.65598 13.705 3.17145 13.705H6.37145C6.73964 13.705 7.03812 14.0035 7.03812 14.3717C7.03812 14.7398 6.73964 15.0383 6.37145 15.0383H3.17144C1.9196 15.0383 0.904777 14.0235 0.904785 12.7716L0.904847 3.17168ZM3.70504 4.7717C3.70504 4.40351 4.00351 4.10503 4.3717 4.10503H9.1717C9.53989 4.10503 9.83837 4.40351 9.83837 4.7717C9.83837 5.13988 9.53989 5.43836 9.1717 5.43836H4.3717C4.00351 5.43836 3.70504 5.13988 3.70504 4.7717ZM3.70504 7.17169C3.70504 6.8035 4.00351 6.50503 4.3717 6.50503H9.1717C9.53989 6.50503 9.83837 6.8035 9.83837 7.17169C9.83837 7.53989 9.53989 7.83836 9.1717 7.83836H4.3717C4.00351 7.83836 3.70504 7.53989 3.70504 7.17169ZM11.6943 8.3002C11.9546 8.03985 12.3767 8.03985 12.6371 8.3002L14.8998 10.5629C15.0249 10.688 15.0951 10.8575 15.0951 11.0343C15.0951 11.2112 15.0249 11.3807 14.8998 11.5057L11.5057 14.8999C11.3807 15.0249 11.2111 15.0951 11.0343 15.0951H8.77158C8.40339 15.0951 8.10492 14.7966 8.10492 14.4285V12.1657C8.10492 11.9889 8.17515 11.8193 8.30018 11.6943L11.6943 8.3002ZM9.43825 12.4419V13.7618H10.7582L13.4856 11.0343L12.1657 9.71441L9.43825 12.4419ZM3.70504 9.57169C3.70504 9.2035 4.00351 8.90503 4.3717 8.90503H6.7717C7.13989 8.90503 7.43837 9.2035 7.43837 9.57169C7.43837 9.93988 7.13989 10.2384 6.7717 10.2384H4.3717C4.00351 10.2384 3.70504 9.93988 3.70504 9.57169Z" fill="#171717"/>
</svg>
